<svg width="110" height="69" viewBox="0 0 110 69" fill="none" xmlns="http://www.w3.org/2000/svg">
<path d="M72.4104 65.5842H37.5889V11.3564C37.5889 6.61272 41.4343 2.76733 46.1779 2.76733H63.8214C68.5651 2.76733 72.4104 6.61272 72.4104 11.3564V65.5842Z" fill="#FFCF27"/>
<path d="M75.1735 68.3511H34.8174V11.356C34.8174 5.09426 39.9116 0 46.1737 0H63.8172C70.079 0 75.1735 5.09426 75.1735 11.356V68.3511ZM40.3519 62.8166H69.6387V11.356C69.6387 8.14599 67.027 5.53453 63.8169 5.53453H46.1734C42.9634 5.53453 40.3516 8.14627 40.3516 11.356L40.3519 62.8166Z" fill="#585858"/>
<path d="M110 68.3519H69.644V21.8618H98.6439C104.906 21.8618 110 26.9561 110 33.2178H104.466C104.466 30.0078 101.854 27.3963 98.6439 27.3963H75.1786V62.8173H104.465V47.9344H110V68.3519Z" fill="#585858"/>
<path d="M40.3558 68.3509H0V27.6827C0 21.4209 5.09426 16.3267 11.3563 16.3267H40.3561V68.3512H40.3558V68.3509ZM5.53453 62.8164H34.8213V21.8609H11.3563C8.14627 21.8609 5.53453 24.4727 5.53453 27.6824C5.53453 27.6827 5.53453 62.8164 5.53453 62.8164Z" fill="#585858"/>
<path d="M61.7557 36.6501V40.9563H48.8373V36.6501H53.0836V29.0247C52.9043 29.2637 52.6248 29.5084 52.2465 29.7571C51.8674 30.0068 51.4438 30.2356 50.9755 30.4448C50.507 30.654 50.0286 30.8239 49.5402 30.9532C49.0515 31.0829 48.6178 31.1474 48.2393 31.1474V26.7217C48.5578 26.7217 48.9718 26.6124 49.4801 26.393C49.9884 26.1738 50.4918 25.9098 50.9905 25.6004C51.4886 25.2916 51.9372 24.9775 52.3362 24.6585C52.7347 24.3397 52.9837 24.0804 53.0836 23.8809H57.9579V36.6496H61.7557V36.6501Z" fill="#585858"/>
<path d="M12.7324 55.4972C12.7324 54.5605 12.8019 53.7231 12.9416 52.9853C13.0808 52.2479 13.3202 51.5751 13.6595 50.9669C13.9982 50.3592 14.4564 49.7961 15.0351 49.2775C15.6131 48.7592 16.3407 48.2511 17.2182 47.7525C18.1549 47.2344 18.9375 46.8061 19.5656 46.4668C20.1935 46.1281 20.6916 45.8289 21.0608 45.5696C21.4297 45.3106 21.6934 45.0762 21.8533 44.8668C22.0127 44.6576 22.0924 44.4135 22.0924 44.1343C22.0924 43.5764 21.8929 43.1278 21.4944 42.7885C21.0954 42.4498 20.5273 42.2802 19.7898 42.2802C18.9527 42.2802 18.2246 42.4847 17.607 42.8931C16.9888 43.3021 16.3907 43.8351 15.8127 44.4932L12.7626 40.9646C13.0814 40.6057 13.5103 40.2573 14.0485 39.9181C14.5868 39.5794 15.1947 39.2752 15.8727 39.006C16.5501 38.7367 17.2931 38.5228 18.1004 38.3631C18.9078 38.2038 19.7497 38.1238 20.6272 38.1238C22.7804 38.1238 24.4296 38.5926 25.5761 39.5293C26.7223 40.4665 27.2957 41.7323 27.2957 43.3271C27.2957 43.9848 27.1911 44.5732 26.9816 45.0915C26.7724 45.61 26.4979 46.0736 26.1592 46.482C25.8199 46.891 25.4414 47.2496 25.0229 47.5585C24.6043 47.8678 24.1753 48.152 23.7373 48.4108C23.4381 48.5901 23.0795 48.7996 22.6605 49.039C22.2418 49.278 21.8279 49.5227 21.4197 49.7714C21.0107 50.0211 20.6319 50.2701 20.2835 50.5192C19.9345 50.7685 19.6705 50.9929 19.4909 51.1919H27.6247V55.498H12.7324V55.4972Z" fill="#585858"/>
<path d="M92.831 46.2194C93.3739 46.3245 93.8737 46.5133 94.3295 46.7845C94.785 47.0565 95.1749 47.3982 95.4995 47.8097C95.8235 48.2218 96.0734 48.695 96.2488 49.2293C96.4237 49.7643 96.5117 50.3379 96.5117 50.9514C96.5117 51.7755 96.3449 52.5155 96.0122 53.1727C95.679 53.8299 95.2014 54.3906 94.5793 54.8552C93.957 55.3193 93.2079 55.6787 92.3315 55.933C91.4551 56.1868 90.4738 56.3141 89.3871 56.3141C86.7228 56.3141 84.6374 55.534 83.1304 53.9744L85.3912 50.9774C85.8644 51.4681 86.4032 51.8408 87.0078 52.0946C87.6125 52.3489 88.3353 52.4759 89.1766 52.4759C91.1568 52.4759 92.1472 51.7489 92.1472 50.2939C92.1472 49.5052 91.8533 48.9097 91.2664 48.5063C90.6789 48.1033 89.7549 47.9016 88.493 47.9016H87.7044V44.8784H88.5719C89.5532 44.8784 90.3203 44.6769 90.8723 44.2737C91.4244 43.8708 91.7006 43.3365 91.7006 42.6701C91.7006 42.0917 91.4988 41.654 91.0959 41.3556C90.6925 41.0579 90.1581 40.9087 89.4923 40.9087C88.7734 40.9087 88.1206 41.0797 87.5336 41.4215C86.9461 41.7633 86.4514 42.2497 86.0484 42.8804L83.3933 39.8309C83.6733 39.4628 84.0414 39.1211 84.4974 38.8056C84.9529 38.4901 85.4701 38.2234 86.0484 38.0039C86.6268 37.785 87.2486 37.614 87.915 37.4912C88.5808 37.3688 89.2643 37.3071 89.9655 37.3071C90.8942 37.3071 91.744 37.4167 92.5155 37.6359C93.2865 37.8553 93.9437 38.1708 94.4872 38.5823C95.0301 38.9943 95.4508 39.4852 95.7491 40.0545C96.0468 40.6242 96.196 41.2596 96.196 41.9606C96.196 42.4863 96.1127 42.9858 95.9461 43.459C95.7792 43.9322 95.5473 44.362 95.2496 44.7472C94.9513 45.133 94.5965 45.4529 94.1847 45.7066C93.773 45.9609 93.3213 46.1317 92.831 46.2194Z" fill="#585858"/>
</svg>
