<svg width="17" height="24" viewBox="0 0 17 24" fill="none" xmlns="http://www.w3.org/2000/svg">
<path d="M16.0834 5.51623L14.2794 4.17742L13.618 2.04874C13.5227 1.74203 13.2379 1.53063 12.9127 1.52527L10.655 1.48771L8.85103 0.148854C8.59105 -0.0440598 8.23463 -0.0500109 7.9683 0.134202L6.11948 1.4122L3.86185 1.37464C3.53703 1.36797 3.24467 1.57098 3.13896 1.8744L2.40501 3.97977L0.556193 5.25781C0.289809 5.44194 0.173946 5.77434 0.269279 6.08104L0.930666 8.20973L0.196808 10.3152C0.0910503 10.6186 0.195436 10.9546 0.455419 11.1475L2.25943 12.4863L3.24929 15.0307V22.3425C3.24929 22.5934 3.37823 22.8273 3.59176 22.9638C3.80538 23.1004 4.0745 23.1209 4.30687 23.0185L8.26943 21.2714L12.232 23.0185C12.3299 23.0616 12.4344 23.083 12.5385 23.083C12.6814 23.083 12.8236 23.0428 12.9471 22.9638C13.1607 22.8273 13.2896 22.5934 13.2896 22.3425V14.9937L14.1338 12.684L15.9826 11.406C16.249 11.2218 16.3649 10.8894 16.2695 10.5827L15.6081 8.45404L16.342 6.34857C16.4478 6.0452 16.3434 5.70924 16.0834 5.51623ZM11.7876 21.2002L8.576 19.7843C8.47847 19.7413 8.37395 19.7197 8.26943 19.7197C8.16495 19.7197 8.06038 19.7413 7.96285 19.7843L4.75125 21.2002V15.1573L5.88377 15.1761L7.68778 16.515C7.94543 16.7061 8.30271 16.7148 8.57052 16.5296L10.4193 15.2516L11.7875 15.2744V21.2002H11.7876ZM14.1005 8.65786L14.6736 10.5022L13.0717 11.6095C12.9418 11.6993 12.8441 11.8273 12.7926 11.9752L12.1567 13.7994L10.2007 13.7668C10.0422 13.7638 9.88675 13.8111 9.75694 13.9009L8.15512 15.0082L6.59207 13.8482C6.4651 13.754 6.31138 13.7021 6.15313 13.6995L4.19713 13.6669L3.62413 11.8226C3.57768 11.6731 3.4844 11.5419 3.35766 11.4479L1.79461 10.2879L2.43048 8.46373C2.48206 8.31581 2.48475 8.15563 2.43834 8.00617L1.86529 6.16184L3.46716 5.05453C3.59702 4.96477 3.69473 4.83677 3.7463 4.68885L4.38213 2.86467L6.33812 2.89726C6.49774 2.89888 6.65206 2.85299 6.78191 2.76318L8.38374 1.65583L9.94678 2.81579C10.0735 2.90984 10.2272 2.96187 10.3857 2.96453L12.3417 2.99712L12.9147 4.84142C12.9612 4.99096 13.0545 5.12211 13.1812 5.21615L14.7443 6.37612L14.1084 8.2003C14.0568 8.34814 14.0541 8.50832 14.1005 8.65786Z" fill="#585858"/>
<path d="M8.26963 3.7417C5.70264 3.7417 3.61423 5.80086 3.61423 8.33201C3.61423 10.8632 5.70259 12.9223 8.26963 12.9223C10.8367 12.9223 12.925 10.8632 12.925 8.33201C12.9251 5.80091 10.8366 3.7417 8.26963 3.7417ZM8.26963 11.4413C6.53087 11.4413 5.11624 10.0465 5.11624 8.33201C5.11624 6.61751 6.53082 5.22271 8.26963 5.22271C10.0084 5.22271 11.423 6.61751 11.423 8.33201C11.4231 10.0465 10.0084 11.4413 8.26963 11.4413Z" fill="#585858"/>
</svg>
