<svg width="25" height="25" viewBox="0 0 25 25" fill="none" xmlns="http://www.w3.org/2000/svg">
<path d="M5.20813 7.29175H19.5727C19.8638 7.29176 20.1516 7.35276 20.4177 7.47082C20.6837 7.58887 20.922 7.76137 21.1174 7.97718C21.3127 8.19299 21.4606 8.44733 21.5516 8.72381C21.6425 9.00028 21.6746 9.29276 21.6456 9.58237L21.0206 15.8324C20.9692 16.3464 20.7286 16.8231 20.3456 17.1697C19.9625 17.5164 19.4643 17.7084 18.9477 17.7084H8.9998C8.518 17.7086 8.05102 17.5418 7.67838 17.2364C7.30575 16.931 7.05048 16.5059 6.95605 16.0334L5.20813 7.29175Z" stroke="#585858" stroke-width="3" stroke-linejoin="round"/>
<path d="M5.20813 7.29167L4.36438 3.91354C4.30795 3.68828 4.17787 3.48834 3.9948 3.34547C3.81174 3.20261 3.58618 3.12501 3.35396 3.125H2.08313" stroke="#585858" stroke-width="3" stroke-linecap="round" stroke-linejoin="round"/>
<path d="M8.33313 21.875H10.4165" stroke="#585858" stroke-width="3" stroke-linecap="round" stroke-linejoin="round"/>
<path d="M16.6663 21.875H18.7496" stroke="#585858" stroke-width="3" stroke-linecap="round" stroke-linejoin="round"/>
</svg>
