<svg width="50" height="50" viewBox="0 0 50 50" fill="none" xmlns="http://www.w3.org/2000/svg">
<g clip-path="url(#clip0_444_108)">
<path d="M17.1875 9.375V3.125C17.1875 2.7106 17.3521 2.31317 17.6452 2.02015C17.9382 1.72712 18.3356 1.5625 18.75 1.5625C19.1644 1.5625 19.5618 1.72712 19.8549 2.02015C20.1479 2.31317 20.3125 2.7106 20.3125 3.125V9.375C20.3125 9.7894 20.1479 10.1868 19.8549 10.4799C19.5618 10.7729 19.1644 10.9375 18.75 10.9375C18.3356 10.9375 17.9382 10.7729 17.6452 10.4799C17.3521 10.1868 17.1875 9.7894 17.1875 9.375ZM25 10.9375C25.4144 10.9375 25.8118 10.7729 26.1049 10.4799C26.3979 10.1868 26.5625 9.7894 26.5625 9.375V3.125C26.5625 2.7106 26.3979 2.31317 26.1049 2.02015C25.8118 1.72712 25.4144 1.5625 25 1.5625C24.5856 1.5625 24.1882 1.72712 23.8952 2.02015C23.6021 2.31317 23.4375 2.7106 23.4375 3.125V9.375C23.4375 9.7894 23.6021 10.1868 23.8952 10.4799C24.1882 10.7729 24.5856 10.9375 25 10.9375ZM31.25 10.9375C31.6644 10.9375 32.0618 10.7729 32.3549 10.4799C32.6479 10.1868 32.8125 9.7894 32.8125 9.375V3.125C32.8125 2.7106 32.6479 2.31317 32.3549 2.02015C32.0618 1.72712 31.6644 1.5625 31.25 1.5625C30.8356 1.5625 30.4382 1.72712 30.1452 2.02015C29.8521 2.31317 29.6875 2.7106 29.6875 3.125V9.375C29.6875 9.7894 29.8521 10.1868 30.1452 10.4799C30.4382 10.7729 30.8356 10.9375 31.25 10.9375ZM49.375 20L43.75 24.2188V35.9375C43.7481 37.5945 43.0891 39.1832 41.9174 40.3549C40.7457 41.5266 39.157 42.1856 37.5 42.1875H12.5C10.843 42.1856 9.25434 41.5266 8.08264 40.3549C6.91095 39.1832 6.25187 37.5945 6.25001 35.9375V24.2188L0.625006 20C0.293486 19.7514 0.0743154 19.3812 0.0157103 18.971C-0.0428948 18.5607 0.0638659 18.144 0.312506 17.8125C0.561147 17.481 0.9313 17.2618 1.34154 17.2032C1.75177 17.1446 2.16849 17.2514 2.50001 17.5L6.25001 20.3125V17.1875C6.25094 16.359 6.58048 15.5647 7.16633 14.9788C7.75218 14.393 8.54649 14.0634 9.37501 14.0625H40.625C41.4535 14.0634 42.2478 14.393 42.8337 14.9788C43.4195 15.5647 43.7491 16.359 43.75 17.1875V20.3125L47.5 17.5C47.8315 17.2514 48.2482 17.1446 48.6585 17.2032C49.0687 17.2618 49.4389 17.481 49.6875 17.8125C49.9361 18.144 50.0429 18.5607 49.9843 18.971C49.9257 19.3812 49.7065 19.7514 49.375 20ZM40.625 17.1875H9.37305L9.37501 35.9375C9.37594 36.766 9.70548 37.5603 10.2913 38.1462C10.8772 38.732 11.6715 39.0616 12.5 39.0625H37.5C38.3285 39.0616 39.1228 38.732 39.7087 38.1462C40.2945 37.5603 40.6241 36.766 40.625 35.9375V17.1875Z" fill="white"/>
</g>
<defs>
<clipPath id="clip0_444_108">
<rect width="50" height="50" fill="white"/>
</clipPath>
</defs>
</svg>
