<svg width="16" height="20" viewBox="0 0 16 20" fill="none" xmlns="http://www.w3.org/2000/svg">
<path d="M14.7226 8.6271C14.303 7.69611 13.6932 6.8605 12.9312 6.17255L12.3024 5.60366C12.281 5.58488 12.2553 5.57154 12.2275 5.56484C12.1997 5.55813 12.1707 5.55825 12.1429 5.5652C12.1152 5.57214 12.0896 5.58569 12.0684 5.60465C12.0473 5.62362 12.0311 5.64742 12.0214 5.67398L11.7405 6.46872C11.5655 6.9673 11.2435 7.47653 10.7876 7.97724C10.7573 8.0092 10.7227 8.01772 10.699 8.01985C10.6752 8.02198 10.6385 8.01772 10.6061 7.98789C10.5758 7.96233 10.5607 7.92397 10.5628 7.88562C10.6428 6.60295 10.2538 5.15622 9.40244 3.58165C8.69799 2.27341 7.7191 1.25281 6.49603 0.541167L5.60359 0.0234122C5.4869 -0.0447695 5.3378 0.0447189 5.34428 0.178952L5.39182 1.20168C5.42423 1.90054 5.34212 2.51844 5.14764 3.03193C4.90994 3.66048 4.56852 4.24429 4.13202 4.76844C3.82825 5.1327 3.48395 5.46218 3.10559 5.75068C2.19436 6.44137 1.4534 7.32639 0.938218 8.33946C0.424302 9.36136 0.156602 10.4865 0.155975 11.6271C0.155975 12.6328 0.356938 13.6065 0.754543 14.5248C1.13846 15.409 1.6925 16.2114 2.38602 16.8877C3.08615 17.5696 3.89864 18.1065 4.80406 18.4794C5.74188 18.8671 6.73589 19.0632 7.76232 19.0632C8.78874 19.0632 9.78275 18.8671 10.7206 18.4815C11.6238 18.1108 12.4451 17.5702 13.1386 16.8899C13.8387 16.2081 14.3876 15.4112 14.7701 14.5269C15.1671 13.6111 15.3708 12.6252 15.3687 11.6292C15.3687 10.5895 15.1526 9.57951 14.7226 8.6271ZM12.1057 15.8565C10.9453 16.99 9.4046 17.6122 7.76232 17.6122C6.12004 17.6122 4.57932 16.99 3.41892 15.8565C2.26285 14.7251 1.62538 13.2251 1.62538 11.6292C1.62538 10.7024 1.83715 9.81389 2.2542 8.98718C2.66045 8.17965 3.2655 7.45735 4.0002 6.90125C4.46877 6.54797 4.89376 6.14179 5.26649 5.69102C5.80671 5.04116 6.23025 4.31673 6.52413 3.53903C6.64468 3.21823 6.73227 2.88632 6.78559 2.54827C7.30637 3.02128 7.74287 3.5923 8.10806 4.26133C8.8298 5.59514 9.16258 6.78193 9.09775 7.79187C9.08226 8.02973 9.12166 8.26796 9.21298 8.48865C9.30431 8.70933 9.44518 8.90674 9.62501 9.06602C9.78085 9.20482 9.96311 9.31171 10.1612 9.38048C10.3593 9.44924 10.5693 9.47851 10.7789 9.46659C11.2046 9.44528 11.5957 9.25991 11.881 8.9467C12.1684 8.62923 12.4169 8.30536 12.6243 7.97511C12.9269 8.3565 13.1797 8.77198 13.3806 9.21943C13.7242 9.98221 13.8993 10.794 13.8993 11.6292C13.8993 13.2251 13.2618 14.7272 12.1057 15.8565Z" fill="#585858"/>
</svg>
