<svg width="25" height="25" viewBox="0 0 25 25" fill="none" xmlns="http://www.w3.org/2000/svg">
<path d="M22.9165 20.8333V12.6812C22.9165 12.114 22.8008 11.5528 22.5764 11.0319C22.3519 10.5111 22.0235 10.0415 21.6113 9.65201L13.931 2.39368C13.5442 2.02798 13.0321 1.82422 12.4998 1.82422C11.9675 1.82422 11.4554 2.02798 11.0685 2.39368L3.38834 9.65201C2.97607 10.0415 2.64766 10.5111 2.42323 11.0319C2.1988 11.5528 2.08307 12.114 2.08313 12.6812V20.8333C2.08313 21.3858 2.30262 21.9157 2.69332 22.3064C3.08402 22.6971 3.61393 22.9166 4.16646 22.9166H20.8331C21.3857 22.9166 21.9156 22.6971 22.3063 22.3064C22.697 21.9157 22.9165 21.3858 22.9165 20.8333Z" stroke="#585858" stroke-width="3" stroke-linecap="round" stroke-linejoin="round"/>
</svg>
