<svg width="50" height="50" viewBox="0 0 50 50" fill="none" xmlns="http://www.w3.org/2000/svg">
<path d="M24.9995 4.16577C20.5792 4.16577 16.34 5.92172 13.2144 9.04733C10.0888 12.1729 8.33282 16.4122 8.33282 20.8324C8.33282 24.7741 9.17032 27.3533 11.4578 30.2074L24.9995 45.8324L38.5412 30.2074C40.8287 27.3533 41.6662 24.7741 41.6662 20.8324C41.6662 16.4122 39.9102 12.1729 36.7846 9.04733C33.659 5.92172 29.4198 4.16577 24.9995 4.16577Z" fill="#FFCF27" stroke="#585858" stroke-width="2" stroke-linecap="round" stroke-linejoin="round"/>
<path d="M24.9998 27.0818C28.4516 27.0818 31.2498 24.2836 31.2498 20.8318C31.2498 17.38 28.4516 14.5818 24.9998 14.5818C21.548 14.5818 18.7498 17.38 18.7498 20.8318C18.7498 24.2836 21.548 27.0818 24.9998 27.0818Z" fill="#F8F9FA" stroke="#585858" stroke-width="2" stroke-linecap="round" stroke-linejoin="round"/>
</svg>
