<svg width="23" height="25" viewBox="0 0 23 25" fill="none" xmlns="http://www.w3.org/2000/svg">
<path d="M11.4997 12.4997C14.3762 12.4997 16.708 10.1678 16.708 7.29134C16.708 4.41486 14.3762 2.08301 11.4997 2.08301C8.62323 2.08301 6.29138 4.41486 6.29138 7.29134C6.29138 10.1678 8.62323 12.4997 11.4997 12.4997Z" stroke="#FFCF27" stroke-width="3"/>
<path d="M16.7082 14.583H17.0749C17.8364 14.5832 18.5717 14.8615 19.1425 15.3656C19.7133 15.8697 20.0804 16.5648 20.1749 17.3205L20.5821 20.5747C20.6188 20.8678 20.5926 21.1654 20.5055 21.4477C20.4183 21.73 20.2721 21.9905 20.0766 22.212C19.881 22.4334 19.6406 22.6108 19.3713 22.7322C19.1019 22.8536 18.8099 22.9164 18.5144 22.9163H4.48528C4.18984 22.9164 3.89777 22.8536 3.62845 22.7322C3.35913 22.6108 3.11872 22.4334 2.92317 22.212C2.72762 21.9905 2.58141 21.73 2.49424 21.4477C2.40707 21.1654 2.38093 20.8678 2.41757 20.5747L2.82382 17.3205C2.91829 16.5645 3.28571 15.869 3.85698 15.3649C4.42824 14.8608 5.164 14.5827 5.9259 14.583H6.29153" stroke="#FFCF27" stroke-width="3" stroke-linecap="round" stroke-linejoin="round"/>
</svg>
