<svg width="25" height="25" viewBox="0 0 25 25" fill="none" xmlns="http://www.w3.org/2000/svg">
<path d="M12.4997 12.4999C15.3761 12.4999 17.708 10.1681 17.708 7.29158C17.708 4.4151 15.3761 2.08325 12.4997 2.08325C9.62317 2.08325 7.29132 4.4151 7.29132 7.29158C7.29132 10.1681 9.62317 12.4999 12.4997 12.4999Z" stroke="#585858" stroke-width="3"/>
<path d="M17.7082 14.5833H18.0749C18.8364 14.5835 19.5717 14.8618 20.1425 15.3658C20.7133 15.8699 21.0804 16.5651 21.1749 17.3208L21.5821 20.5749C21.6188 20.8681 21.5926 21.1657 21.5055 21.448C21.4183 21.7302 21.2721 21.9907 21.0766 22.2122C20.881 22.4337 20.6406 22.611 20.3713 22.7324C20.1019 22.8539 19.8099 22.9166 19.5144 22.9166H5.48528C5.18984 22.9166 4.89777 22.8539 4.62845 22.7324C4.35913 22.611 4.11872 22.4337 3.92317 22.2122C3.72762 21.9907 3.58141 21.7302 3.49424 21.448C3.40707 21.1657 3.38093 20.8681 3.41757 20.5749L3.82382 17.3208C3.91829 16.5647 4.28571 15.8693 4.85698 15.3651C5.42824 14.861 6.164 14.583 6.9259 14.5833H7.29153" stroke="#585858" stroke-width="3" stroke-linecap="round" stroke-linejoin="round"/>
</svg>
