<svg width="50" height="50" viewBox="0 0 50 50" fill="none" xmlns="http://www.w3.org/2000/svg">
<path d="M31.25 41.667H37.5C38.605 41.667 39.6648 41.228 40.4462 40.4466C41.2276 39.6652 41.6666 38.6054 41.6666 37.5003V31.2503C41.6666 30.6978 41.8861 30.1679 42.2768 29.7772C42.6675 29.3865 43.1974 29.167 43.75 29.167C44.3025 29.167 44.8324 29.3865 45.2231 29.7772C45.6138 30.1679 45.8333 30.6978 45.8333 31.2503V37.5003C45.8333 39.7105 44.9553 41.8301 43.3925 43.3929C41.8297 44.9557 39.7101 45.8337 37.5 45.8337H12.5C10.2898 45.8337 8.17021 44.9557 6.6074 43.3929C5.0446 41.8301 4.16663 39.7105 4.16663 37.5003V31.2503C4.16663 30.6978 4.38612 30.1679 4.77682 29.7772C5.16752 29.3865 5.69743 29.167 6.24996 29.167C6.80249 29.167 7.3324 29.3865 7.7231 29.7772C8.1138 30.1679 8.33329 30.6978 8.33329 31.2503V37.5003C8.33329 38.6054 8.77228 39.6652 9.55368 40.4466C10.3351 41.228 11.3949 41.667 12.5 41.667H18.75C19.3025 41.667 19.8324 41.8865 20.2231 42.2772C20.6138 42.6679 20.8333 43.1978 20.8333 43.7503C20.8333 44.3029 20.6138 44.8328 20.2231 45.2235C19.8324 45.6142 19.3025 45.8337 18.75 45.8337H31.25C30.6974 45.8337 30.1675 45.6142 29.7768 45.2235C29.3861 44.8328 29.1666 44.3029 29.1666 43.7503C29.1666 43.1978 29.3861 42.6679 29.7768 42.2772C30.1675 41.8865 30.6974 41.667 31.25 41.667ZM8.33329 18.7503C8.33329 19.3029 8.1138 19.8328 7.7231 20.2235C7.3324 20.6142 6.80249 20.8337 6.24996 20.8337C5.69743 20.8337 5.16752 20.6142 4.77682 20.2235C4.38612 19.8328 4.16663 19.3029 4.16663 18.7503V12.5003C4.16663 10.2902 5.0446 8.17057 6.6074 6.60777C8.17021 5.04497 10.2898 4.16699 12.5 4.16699H18.75C19.3025 4.16699 19.8324 4.38649 20.2231 4.77719C20.6138 5.16789 20.8333 5.69779 20.8333 6.25033C20.8333 6.80286 20.6138 7.33276 20.2231 7.72346C19.8324 8.11417 19.3025 8.33366 18.75 8.33366H12.5C11.3949 8.33366 10.3351 8.77265 9.55368 9.55405C8.77228 10.3354 8.33329 11.3953 8.33329 12.5003V18.7503ZM41.6666 18.7503V12.5003C41.6666 11.3953 41.2276 10.3354 40.4462 9.55405C39.6648 8.77265 38.605 8.33366 37.5 8.33366H31.25C30.6974 8.33366 30.1675 8.11417 29.7768 7.72346C29.3861 7.33276 29.1666 6.80286 29.1666 6.25033C29.1666 5.69779 29.3861 5.16789 29.7768 4.77719C30.1675 4.38649 30.6974 4.16699 31.25 4.16699H37.5C39.7101 4.16699 41.8297 5.04497 43.3925 6.60777C44.9553 8.17057 45.8333 10.2902 45.8333 12.5003V18.7503C45.8333 19.3029 45.6138 19.8328 45.2231 20.2235C44.8324 20.6142 44.3025 20.8337 43.75 20.8337C43.1974 20.8337 42.6675 20.6142 42.2768 20.2235C41.8861 19.8328 41.6666 19.3029 41.6666 18.7503Z" fill="white"/>
</svg>
