<svg width="25" height="25" viewBox="0 0 25 25" fill="none" xmlns="http://www.w3.org/2000/svg">
<path d="M12.5 8V11.5M12.5 11.5V15M12.5 11.5H16M12.5 11.5H8.99998" stroke="#585858" stroke-width="3" stroke-linecap="square"/>
<path d="M14.5834 19.7917C18.5115 19.7917 20.4761 19.7917 21.6959 18.5708C22.9167 17.351 22.9167 15.3865 22.9167 11.4583C22.9167 7.53021 22.9167 5.56563 21.6959 4.34583C20.4761 3.125 18.5115 3.125 14.5834 3.125H10.4167C6.48856 3.125 4.52398 3.125 3.30418 4.34583C2.08335 5.56563 2.08335 7.53021 2.08335 11.4583C2.08335 15.3865 2.08335 17.351 3.30418 18.5708C3.98439 19.2521 4.89585 19.5531 6.25002 19.6854" stroke="#585858" stroke-width="3" stroke-linecap="round" stroke-linejoin="round"/>
<path d="M14.5833 19.792C13.2958 19.792 11.8771 20.3128 10.5823 20.9847C8.50105 22.0649 7.46042 22.6055 6.94792 22.2607C6.43542 21.917 6.5323 20.8493 6.72709 18.7149L6.77084 18.2295" stroke="#585858" stroke-width="3" stroke-linecap="round"/>
</svg>
