<svg width="16" height="15" viewBox="0 0 16 15" fill="none" xmlns="http://www.w3.org/2000/svg">
<g clip-path="url(#clip0_291_606)">
<path d="M14.5081 13.7996L11.7016 10.9612L14.5081 13.7996ZM13.2569 7.16798C13.2569 8.59178 12.6966 9.95725 11.6993 10.964C10.7021 11.9708 9.34948 12.5364 7.93911 12.5364C6.52875 12.5364 5.17615 11.9708 4.17888 10.964C3.1816 9.95725 2.62134 8.59178 2.62134 7.16798C2.62134 5.74419 3.1816 4.37871 4.17888 3.37193C5.17615 2.36516 6.52875 1.79956 7.93911 1.79956C9.34948 1.79956 10.7021 2.36516 11.6993 3.37193C12.6966 4.37871 13.2569 5.74419 13.2569 7.16798V7.16798Z" stroke="#585858" stroke-opacity="0.3" stroke-width="2" stroke-linecap="round"/>
</g>
<defs>
<clipPath id="clip0_291_606">
<rect width="14.8585" height="15" fill="white" transform="translate(0.838745)"/>
</clipPath>
</defs>
</svg>
