<svg width="30" height="30" viewBox="0 0 20 20" fill="none" xmlns="http://www.w3.org/2000/svg">
<path d="M17.1562 9.44394L3.40624 2.56894C3.29847 2.51504 3.17742 2.49345 3.05766 2.50675C2.93791 2.52006 2.82455 2.5677 2.73124 2.64394C2.64213 2.71862 2.57562 2.81668 2.53918 2.92709C2.50275 3.0375 2.49783 3.15589 2.52499 3.26894L4.37499 10.0002L2.49999 16.7127C2.47451 16.8071 2.47153 16.9062 2.4913 17.0019C2.51108 17.0977 2.55305 17.1875 2.61384 17.2641C2.67463 17.3407 2.75255 17.402 2.84132 17.443C2.9301 17.484 3.02726 17.5036 3.12499 17.5002C3.22283 17.4996 3.31916 17.4761 3.40624 17.4314L17.1562 10.5564C17.2586 10.504 17.3445 10.4243 17.4045 10.3262C17.4645 10.228 17.4963 10.1152 17.4963 10.0002C17.4963 9.88516 17.4645 9.77236 17.4045 9.67422C17.3445 9.57607 17.2586 9.49639 17.1562 9.44394ZM4.09374 15.6939L5.47499 10.6252H11.25V9.37519H5.47499L4.09374 4.30644L15.475 10.0002L4.09374 15.6939Z" fill="white"/>
</svg>
