<svg width="44" height="50" viewBox="0 0 44 50" fill="none" xmlns="http://www.w3.org/2000/svg">
<path fill-rule="evenodd" clip-rule="evenodd" d="M30.9188 25.4561C31.0643 25.6013 31.1797 25.7737 31.2585 25.9635C31.3373 26.1533 31.3778 26.3568 31.3778 26.5624C31.3778 26.7679 31.3373 26.9714 31.2585 27.1612C31.1797 27.351 31.0643 27.5235 30.9188 27.6686L21.5438 37.0436C21.3986 37.1891 21.2262 37.3046 21.0364 37.3833C20.8465 37.4621 20.643 37.5027 20.4375 37.5027C20.232 37.5027 20.0285 37.4621 19.8387 37.3833C19.6488 37.3046 19.4764 37.1891 19.3313 37.0436L14.6438 32.3561C14.4985 32.2108 14.3833 32.0384 14.3046 31.8486C14.226 31.6588 14.1855 31.4553 14.1855 31.2499C14.1855 31.0444 14.226 30.841 14.3046 30.6512C14.3833 30.4614 14.4985 30.2889 14.6438 30.1436C14.9372 29.8502 15.3351 29.6854 15.75 29.6854C15.9555 29.6854 16.1589 29.7259 16.3487 29.8045C16.5385 29.8831 16.711 29.9983 16.8563 30.1436L20.4375 33.728L28.7063 25.4561C28.8514 25.3106 29.0238 25.1952 29.2137 25.1164C29.4035 25.0376 29.607 24.9971 29.8125 24.9971C30.018 24.9971 30.2215 25.0376 30.4114 25.1164C30.6012 25.1952 30.7736 25.3106 30.9188 25.4561Z" fill="white"/>
<path d="M22 3.125C24.072 3.125 26.0591 3.9481 27.5243 5.41323C28.9894 6.87836 29.8125 8.8655 29.8125 10.9375V12.5H14.1875V10.9375C14.1875 8.8655 15.0106 6.87836 16.4757 5.41323C17.9409 3.9481 19.928 3.125 22 3.125ZM32.9375 12.5V10.9375C32.9375 8.03669 31.7852 5.2547 29.734 3.20352C27.6828 1.15234 24.9008 0 22 0C19.0992 0 16.3172 1.15234 14.266 3.20352C12.2148 5.2547 11.0625 8.03669 11.0625 10.9375V12.5H0.125V43.75C0.125 45.4076 0.78348 46.9973 1.95558 48.1694C3.12769 49.3415 4.7174 50 6.375 50H37.625C39.2826 50 40.8723 49.3415 42.0444 48.1694C43.2165 46.9973 43.875 45.4076 43.875 43.75V12.5H32.9375ZM3.25 15.625H40.75V43.75C40.75 44.5788 40.4208 45.3737 39.8347 45.9597C39.2487 46.5458 38.4538 46.875 37.625 46.875H6.375C5.5462 46.875 4.75134 46.5458 4.16529 45.9597C3.57924 45.3737 3.25 44.5788 3.25 43.75V15.625Z" fill="white"/>
</svg>
