<svg width="21" height="20" viewBox="0 0 21 20" fill="none" xmlns="http://www.w3.org/2000/svg">
<g clip-path="url(#clip0_291_1065)">
<path d="M16.1191 19.5453C16.0042 19.5453 15.8888 19.5182 15.7831 19.4634L10.2978 16.62L4.81252 19.4634C4.56909 19.5896 4.27416 19.5686 4.0517 19.4092C3.82919 19.2499 3.71781 18.9797 3.76428 18.7124L4.81183 12.6898L0.374155 8.42464C0.177245 8.23539 0.106387 7.95227 0.191347 7.69446C0.276307 7.43659 0.502404 7.24865 0.774564 7.20961L6.90733 6.33097L9.64997 0.851436C9.77163 0.608269 10.0228 0.454346 10.2978 0.454346C10.5727 0.454346 10.824 0.608269 10.9456 0.851436L13.6882 6.33097L19.8209 7.20961C20.0931 7.24865 20.3191 7.43653 20.4041 7.69446C20.4892 7.95227 20.4183 8.23539 20.2213 8.42464L15.7836 12.6899L16.8312 18.7125C16.8777 18.9797 16.7662 19.2499 16.5438 19.4092C16.418 19.4994 16.269 19.5453 16.1191 19.5453ZM2.43093 8.41205L6.09241 11.9312C6.26268 12.0948 6.34041 12.3306 6.30013 12.5616L5.43579 17.5307L9.96155 15.1845C10.172 15.0754 10.4235 15.0754 10.6339 15.1845L15.1597 17.5306L14.2953 12.5616C14.2551 12.3305 14.3328 12.0948 14.5031 11.9312L18.1646 8.41205L13.1047 7.68705C12.8694 7.65332 12.6659 7.50766 12.5607 7.29737L10.2979 2.77631L8.03498 7.29737C7.9298 7.5076 7.7263 7.65332 7.49101 7.68705L2.43093 8.41205Z" fill="#585858"/>
</g>
<defs>
<clipPath id="clip0_291_1065">
<rect width="20.2836" height="20" fill="white" transform="translate(0.155975)"/>
</clipPath>
</defs>
</svg>
