<svg width="21" height="20" viewBox="0 0 21 20" fill="none" xmlns="http://www.w3.org/2000/svg">
<path d="M2.06666 5.65166C2.24072 5.73748 2.73391 5.99493 3.27268 5.3983C3.48819 5.09999 3.7037 4.80168 3.96065 4.50745C4.2632 4.16827 4.21761 3.6166 3.87362 3.31829C3.52963 3.01998 2.97014 3.06493 2.6676 3.4041C2.36505 3.74328 2.06251 4.12741 1.80556 4.50745C1.55275 4.88749 1.68122 5.39421 2.06666 5.65166Z" fill="#585858"/>
<path d="M10.4757 1.65502C11.2963 1.65502 12.1127 1.7817 12.8919 2.03915C13.4141 2.19035 13.7953 1.86752 13.9694 1.52834C14.0979 1.06248 13.8409 0.592538 13.4099 0.465858C12.4608 0.167545 11.5118 0 10.5212 0C10.0488 0 9.65921 0.339177 9.65921 0.809121C9.65921 1.27907 10.0032 1.65502 10.4757 1.65502Z" fill="#585858"/>
<path d="M18.1511 6.84067C18.4536 7.56397 18.6235 8.32814 18.7106 9.09231C18.7106 9.09231 18.7603 10.0404 19.6596 9.90143C20.5507 9.78701 20.4346 8.92477 20.4346 8.92477C20.3476 7.98897 20.0907 7.05317 19.7467 6.20318C19.5312 5.77819 19.0587 5.56569 18.6277 5.73732C18.1925 5.94982 17.977 6.41568 18.1511 6.84067Z" fill="#585858"/>
<path d="M15.0469 3.1015C15.7349 3.56736 16.34 4.12312 16.8581 4.76061C17.2435 5.23464 17.8942 5.03849 18.0226 4.88729C18.3666 4.58898 18.4537 4.0373 18.1511 3.69813C17.546 2.97482 16.8125 2.29647 15.996 1.74071C15.6064 1.48735 15.0925 1.56907 14.8314 1.9532C14.5703 2.33733 14.6574 2.84405 15.0469 3.1015Z" fill="#585858"/>
<path d="M5.7344 2.97083C6.42238 2.54583 7.20153 2.20666 7.97653 1.99416C8.449 1.86748 8.7101 1.39754 8.58162 0.972544C8.45314 0.506686 7.97653 0.249239 7.54551 0.375919C6.59644 0.62928 5.69296 1.01341 4.87237 1.52422C4.48279 1.77758 4.35431 2.28839 4.61541 2.67252C4.78533 2.92996 5.15004 3.18332 5.7344 2.97083Z" fill="#585858"/>
<path d="M19.5726 10.9641C19.1001 10.8374 18.6691 11.1357 18.5821 11.6015C18.495 11.9857 18.2298 12.8806 18.2256 12.9664C17.0859 15.8882 14.3506 17.9437 11.2092 18.2747C8.11742 18.5935 5.10857 17.2163 3.36377 14.7399L4.95937 15.0873C5.39039 15.1731 5.86285 14.9157 5.94989 14.4498C6.03692 14.0248 5.77582 13.559 5.30336 13.4731L1.94224 12.7498C1.72673 12.709 1.05533 12.7498 0.906133 13.3873L0.172571 16.7464C0.0855387 17.1714 0.346637 17.6373 0.8191 17.7231C1.34544 17.7762 1.72258 17.4697 1.8552 17.0447L2.11216 15.8923C4.03102 18.4545 7.49576 20.3507 11.3832 19.9379C15.3038 19.5211 18.6277 16.918 19.9207 13.2647C19.9622 13.1585 20.1569 12.2676 20.2233 11.9448C20.3517 11.4749 20.0492 11.0499 19.5726 10.9641Z" fill="#585858"/>
<path d="M6.9777 10.8373H10.9522C11.4247 10.8373 11.7728 10.4532 11.8142 9.98736V4.1764C11.8142 3.71054 11.4247 3.32642 10.9522 3.32642C10.4797 3.32642 10.0902 3.71054 10.0902 4.1764V9.13738H6.9777C6.50524 9.13738 6.11566 9.5215 6.11566 9.98736C6.11566 10.4532 6.50109 10.8373 6.9777 10.8373Z" fill="#585858"/>
</svg>
