<svg width="20" height="20" viewBox="0 0 20 20" fill="none" xmlns="http://www.w3.org/2000/svg">
<path d="M3.33337 5H16.6667L15.35 16.85C15.3049 17.2578 15.1109 17.6346 14.8053 17.9083C14.4996 18.182 14.1037 18.3334 13.6934 18.3333H6.30671C5.8964 18.3334 5.50051 18.182 5.19483 17.9083C4.88915 17.6346 4.69517 17.2578 4.65004 16.85L3.33337 5Z" stroke="#585858" stroke-width="2" stroke-linecap="round" stroke-linejoin="round"/>
<path d="M6.12083 2.62283C6.25563 2.33697 6.46892 2.09532 6.73584 1.92608C7.00275 1.75685 7.31229 1.66699 7.62833 1.66699H12.3717C12.6879 1.66683 12.9976 1.75661 13.2646 1.92586C13.5317 2.09511 13.7451 2.33684 13.88 2.62283L15 5.00033H5L6.12083 2.62283Z" stroke="#585858" stroke-width="2" stroke-linecap="round" stroke-linejoin="round"/>
<path d="M1.66669 5H18.3334" stroke="#585858" stroke-width="2" stroke-linecap="round" stroke-linejoin="round"/>
<path d="M8.33337 9.16699V13.3337" stroke="#585858" stroke-width="2" stroke-linecap="round" stroke-linejoin="round"/>
<path d="M11.6667 9.16699V13.3337" stroke="#585858" stroke-width="2" stroke-linecap="round" stroke-linejoin="round"/>
</svg>
