<svg width="25" height="25" viewBox="0 0 25 25" fill="none" xmlns="http://www.w3.org/2000/svg">
<path d="M4.16626 6.25H20.8329L19.1871 21.0625C19.1307 21.5723 18.8882 22.0433 18.5061 22.3854C18.124 22.7275 17.6291 22.9167 17.1163 22.9167H7.88293C7.37005 22.9167 6.87518 22.7275 6.49308 22.3854C6.11098 22.0433 5.86851 21.5723 5.81209 21.0625L4.16626 6.25Z" stroke="#F25656" stroke-width="1.66667" stroke-linecap="round" stroke-linejoin="round"/>
<path d="M7.65104 3.2778C7.81953 2.92047 8.08615 2.61842 8.4198 2.40687C8.75344 2.19533 9.14036 2.083 9.53542 2.08301H15.4646C15.8598 2.08281 16.247 2.19504 16.5808 2.40659C16.9147 2.61815 17.1814 2.92031 17.35 3.2778L18.75 6.24968H6.25L7.65104 3.2778Z" stroke="#F25656" stroke-width="1.66667" stroke-linecap="round" stroke-linejoin="round"/>
<path d="M2.08313 6.25H22.9165" stroke="#F25656" stroke-width="1.66667" stroke-linecap="round" stroke-linejoin="round"/>
<path d="M10.4163 11.458V16.6663" stroke="#F25656" stroke-width="1.66667" stroke-linecap="round" stroke-linejoin="round"/>
<path d="M14.5831 11.458V16.6663" stroke="#F25656" stroke-width="1.66667" stroke-linecap="round" stroke-linejoin="round"/>
</svg>
